<svg xmlns="http://www.w3.org/2000/svg" width="100" height="146" fill="none" viewBox="0 0 100 146"><path fill="#000" d="M33.985 35.288v26.707q0 1.633.351 2.449.41.816 1.465 1.108 1.114.291 3.223.291h7.501q3.105 0 4.747-2.04 1.64-2.042 2.11-5.365 0-.175.292-.117.352 0 .352.175a111 111 0 0 0-.352 3.674 47 47 0 0 0-.176 3.907q0 .874-.879.874H25.664q-.117 0-.117-.35t.117-.35q2.227 0 3.34-.291t1.465-1.166q.41-.875.41-2.566V35.229q0-1.69-.41-2.507-.352-.874-1.465-1.167-1.113-.35-3.34-.35-.117 0-.117-.35t.117-.35q1.406 0 3.105.117 1.76.06 3.634.059 1.992 0 3.691-.059a48 48 0 0 1 3.106-.116q.117 0 .117.35t-.117.35q-2.227 0-3.34.35-1.113.291-1.524 1.166-.351.874-.351 2.566"/><path fill="#000" d="m53.223 71.19.645-.526q3.34 0 5.86 1.283t3.867 3.499q1.407 2.216 1.406 5.015 0 3.15-1.465 5.656-1.464 2.508-4.043 3.965-2.52 1.4-5.684 1.4-1.934 0-4.278-.175a59 59 0 0 0-4.395-.175q-1.874 0-3.633.058a96 96 0 0 1-3.164.059q-.117 0-.117-.35t.117-.35q2.227 0 3.34-.292 1.172-.291 1.582-1.166.41-.874.41-2.566V59.527q0-1.692-.41-2.508-.352-.875-1.465-1.166-1.113-.35-3.34-.35-.176 0-.176-.35t.176-.35q1.348 0 3.047.117 1.758.058 3.633.058 1.524 0 3.516-.175 2.052-.174 3.34-.174 3.458 0 5.509 1.107 2.11 1.05 3.047 2.8.938 1.748.938 3.848 0 3.324-2.403 5.598-2.344 2.274-5.86 3.207m-2.578-15.803q-1.407 0-2.286.233-.879.174-1.289 1.05-.351.874-.351 2.973v11.43l-1.758-.467q1.875.117 3.105.175h1.407q4.864 0 6.856-2.274 1.992-2.333 1.992-5.715 0-1.983-.762-3.674-.703-1.69-2.402-2.682-1.641-1.05-4.512-1.05m2.344 35.162q4.454 0 6.504-2.274 2.11-2.333 2.11-6.356 0-4.374-2.696-7.173t-7.383-2.857a45 45 0 0 0-3.223 0q-1.583.058-3.165.291l1.583-.64v14.985q0 1.459.468 2.391.469.875 1.817 1.283 1.348.35 3.985.35"/><path fill="#000" d="M56.427 110.589q0 1.749.469 2.682.528.875 2.11 1.225t4.746.35q.176 0 .176.35t-.176.349q-1.875 0-4.102-.058a177 177 0 0 0-4.746-.058q-1.876 0-3.634.058a96 96 0 0 1-3.164.058q-.117 0-.117-.349 0-.35.117-.35 2.227 0 3.34-.292 1.113-.291 1.465-1.166.41-.874.41-2.566V83.823q0-1.69-.41-2.507-.352-.875-1.465-1.166-1.113-.35-3.34-.35-.117 0-.117-.35t.117-.35q1.407 0 3.106.117 1.758.058 3.633.058 1.523 0 3.692-.175a56 56 0 0 1 4.512-.175q3.223 0 5.86.992 2.637.99 4.16 3.09 1.583 2.1 1.583 5.481 0 3.09-1.172 5.307a10.9 10.9 0 0 1-3.106 3.674 13.5 13.5 0 0 1-4.16 2.099q-2.286.7-4.513.7-.762 0-1.523-.059a7.5 7.5 0 0 1-1.348-.233q-.235-.058-.176-.408.117-.408.293-.35.527.117 1.055.175.586.058 1.054.058 2.579 0 4.864-1.05t3.692-3.207q1.406-2.215 1.406-5.54 0-3.206-1.289-5.422-1.23-2.217-3.34-3.382-2.11-1.167-4.688-1.167-2.11 0-3.281.233-1.114.176-1.583 1.05-.41.875-.41 2.974z"/><path fill="#000" d="M50.3 138.271c-25.61 0-46.45-29.016-46.45-64.69S24.69 8.894 50.3 8.894c25.609 0 46.449 29.015 46.449 64.689s-20.835 64.689-46.45 64.689m0-128.675C24.964 9.596 4.354 38.3 4.354 73.582s20.61 63.985 45.944 63.985 45.944-28.704 45.944-63.985S75.633 9.596 50.3 9.596"/><path fill="#000" d="M6.35 80.21c-.126 0-.235-.138-.25-.312a88 88 0 0 1-.23-6.316c0-34.122 19.934-61.883 44.434-61.883 1.516 0 3.041.11 4.536.32.14.021.24.188.224.384s-.14.326-.276.312a32 32 0 0 0-4.484-.32C26.08 12.404 6.37 39.846 6.37 73.583c0 2.081.078 4.184.23 6.244.015.196-.09.362-.225.384zm43.95 55.247c-2.417 0-4.844-.276-7.218-.812-.136-.029-.23-.211-.209-.407.021-.188.157-.326.292-.29 2.343.537 4.744.805 7.134.805 24.225 0 43.93-27.442 43.93-61.179 0-.195.114-.348.25-.348.135 0 .25.16.25.348 0 34.122-19.935 61.883-44.435 61.883zm44.277-98.129c-.12-1.617.297-3.038.865-4.402.02-.05.057-.08.083-.123.094-.152.37-.145.448 0 .026.044.067.073.083.123.354.987.64 2.01.63 3.126-.01 1.56-.432 2.785-1.53 3.408-.152.087-.162.254-.126.421.037.16.11.297.177.435.016.036.089.073.104.058.198-.203.386-.428.584-.63.729-.755 1.546-1.052 2.447-.929.385.05.552.522.349 1-.083.197-.167.4-.276.574-.73 1.116-1.614 1.77-2.724 1.697-.453-.03-.9-.015-1.25-.544-.103-.16-.29-.203-.437-.312-1.13-.856-1.723-2.248-2-3.952-.01-.051.011-.11.006-.167-.005-.261.26-.53.442-.457.443.174.834.493 1.203.87.23.24.443.515.672.762.057.058.151.05.23.05.01 0 .036-.094.036-.145 0-.283-.005-.573-.01-.855zm.36-.254c.072.349.166.784.26 1.219.031.145.213.203.307.123.219-.188.36-.471.469-.776.458-1.233.312-2.43-.12-3.604-.016-.044-.068-.109-.094-.102-.067.015-.156.037-.187.102-.375.906-.531 1.907-.64 3.038zm.921 4.301c.922-.007 1.505-.384 2.161-1.385.078-.123.1-.413.026-.464-.073-.051-.15-.124-.224-.116-.812.094-1.505.544-2.072 1.363-.026.044-.057.087-.068.138-.02.109-.062.246-.036.319.03.08.135.102.208.145zm-3.005-3.677c-.03.022-.083.036-.093.065-.032.102-.078.218-.058.312.235 1.088.72 1.915 1.422 2.488q.054.045.115.058c.078.014.208.058.234.007.068-.123.14-.32.115-.442-.266-1.16-.865-1.915-1.61-2.48-.03-.022-.078-.015-.12-.015zM86.5 11.308c-.166-1.574.157-3.097.792-4.504.083-.188.219-.333.333-.493.089-.123.38-.05.448.101.047.095.11.182.136.283.338 1.255.442 2.568.406 3.902-.01.464-.094.907-.23 1.334-.046.153-.088.363.058.443.099.058.24.05.344 0 .39-.182.77-.406 1.166-.573.151-.065.323-.044.49-.036.197 0 .374.377.307.63-.058.21-.11.443-.203.617-.5.957-1.146 1.646-1.969 1.987-.432.181-.859.384-1.296.558a.5.5 0 0 1-.36.008c-1.072-.428-1.926-1.291-2.52-2.618-.083-.182-.089-.435-.125-.653-.02-.109.135-.392.203-.384.203.021.422 0 .61.087.421.217.832.493 1.25.74.093.057.176-.015.176-.138 0-.4-.01-.798-.016-1.299zm1.709-1.262c0-.812-.157-1.581-.287-2.357-.016-.087-.094-.189-.156-.203-.063-.015-.172.036-.203.109-.698 1.544-.823 3.19-.438 4.917.037.152.209.224.287.123.552-.696.786-1.574.796-2.59m1.858 2.69c-.01-.043-.01-.101-.025-.13-.026-.036-.073-.073-.105-.066-.677.233-1.317.574-1.853 1.226-.063.073-.136.152-.162.247-.041.137-.057.29-.062.435 0 .022.15.087.218.065.781-.232 1.443-.754 1.948-1.624.026-.044.031-.102.047-.16zm-4.816.022q-.108.023-.224.044c.01.094 0 .21.031.283a4.3 4.3 0 0 0 1.291 1.493.46.46 0 0 0 .235.073c.031 0 .078-.036.099-.073a.2.2 0 0 0 .02-.137c-.286-.892-.848-1.313-1.452-1.676zm-4.66 23.339c-.224-.414-.432-.77-.62-1.146-.479-.95-.801-1.995-1-3.119-.025-.16-.03-.362.022-.493.046-.13.177-.218.28-.276.063-.029.167.015.235.073a6.65 6.65 0 0 1 2.015 3.155c.406 1.363.26 2.625-.442 3.67-.823 1.21-1.87 1.834-3.083 1.849a.32.32 0 0 1-.224-.11c-.057-.057-.125-.18-.12-.268a1.3 1.3 0 0 1 .1-.478c.572-1.16 1.285-2.074 2.264-2.531.188-.087.365-.21.573-.326m-.026.833c-.15.044-.364.073-.547.174a3.9 3.9 0 0 0-1.395 1.371c-.073.123-.1.298-.151.45.114.036.245.123.343.087a3.8 3.8 0 0 0 1.74-1.24c.088-.116.172-.247.24-.392.04-.087.077-.246.046-.312-.031-.072-.14-.08-.27-.138zm.63-1.798c-.02-.145-.026-.326-.068-.479-.26-.913-.64-1.704-1.234-2.277-.03-.029-.104-.065-.109-.058-.042.087-.11.203-.094.276.219 1.116.6 2.095 1.27 2.806.027.03.105.044.115.022.047-.08.079-.181.125-.297zM91.932 22.81c.552-.232 1.099-.486 1.656-.675.229-.072.49 0 .729.044.182.036.323.442.27.681a3.5 3.5 0 0 1-.562 1.328c-.708 1.03-1.567 1.624-2.572 1.943-.87.276-1.531-.109-2.146-.892a1 1 0 0 1-.088-.123c-.584-.878-.89-1.915-.99-3.09-.02-.282.24-.536.427-.435.667.377 1.219.965 1.635 1.784.146.283.26.588.391.878.104.232.234.232.38-.022.203-.355.401-.725.604-1.088.084-.116.167-.225.255-.34zm1.791-.073c-1.067.196-1.942.885-2.416 2.393-.016.044-.01.145.01.167.063.065.146.152.209.138 1-.29 1.817-.98 2.405-2.154a.57.57 0 0 0 .042-.32c-.016-.072-.12-.108-.25-.217zm-4.853.167c.166.885.505 1.632 1.057 2.183.104.101.297.123.323.014.02-.101.052-.217.031-.312-.182-.913-.599-1.58-1.156-2.096-.042-.036-.14.015-.203.051-.026.015-.031.095-.052.16m-7.223 18.268c-.166-.03-.411-.058-.65-.102-.152-.029-.245-.362-.157-.544.047-.094.078-.203.13-.29.6-1.008 1.328-1.697 2.276-1.907q.304-.063.61-.138c.119-.029.176-.232.109-.391q-.127-.294-.26-.588c-.5-1.138-.782-2.393-.995-3.684-.026-.16 0-.34.01-.508.01-.174.27-.377.385-.311.037.021.084.014.115.043a6 6 0 0 1 1.614 2.32c.537 1.372.526 2.706-.146 4.033-.614 1.211-1.426 1.857-2.468 1.994-.161.022-.328.037-.573.058zm1.688-6.897c.13.79.338 1.53.614 2.234.12.297.26.58.406.856.042.072.146.13.208.116.052-.015.115-.145.12-.233.12-1.327-.38-2.277-1.01-3.147-.12-.167-.276-.232-.302-.13-.026.101-.026.21-.042.304zm.338 4.656c-.854.087-1.24.305-1.88 1.059-.11.13-.172.384-.11.435.068.05.152.116.225.109.661-.08 1.28-.327 1.812-.907.094-.101.172-.24.245-.37.02-.036.02-.116.01-.166-.01-.044-.042-.095-.068-.11-.078-.028-.156-.043-.234-.065z"/><path fill="#000" d="M91.213 30.098c-.541-.022-.942-.03-1.348-.181-.73-.276-1.235-.885-1.557-1.799-.198-.566-.355-1.16-.297-1.82.015-.174.229-.42.354-.363.156.066.312.13.458.232.646.457 1.088 1.197 1.453 2.045.11.262.208.254.385.008.172-.24.333-.508.52-.733.48-.58 1.042-.906 1.678-.986.494-.065.984-.073 1.468.08.234.072.38.515.266.82-.058.151-.104.311-.183.442-.859 1.45-1.963 2.211-3.192 2.248zm.162-.703c1-.102 1.822-.646 2.457-1.697a.52.52 0 0 0 .042-.312.32.32 0 0 0-.172-.196c-.536-.174-1.062-.044-1.557.217-.541.283-.979.798-1.255 1.538-.047.13.037.37.136.384.12.015.24.037.338.058zM88.698 26.9c-.026.022-.062.036-.078.072-.02.044-.047.11-.037.16.115.9.438 1.595 1.063 1.965.062.036.172.03.224-.022.046-.05.067-.21.046-.29-.208-.703-.53-1.298-.984-1.733-.067-.065-.15-.094-.224-.145zm7.113 18.311c.12.008-.052.03-.208-.021-.48-.16-.953-.276-1.453-.08-.323.123-.672-.05-.953-.261-.765-.566-1.286-1.414-1.37-2.676q.002-.089.011-.167c.005-.334.297-.624.531-.522.839.362 1.588.92 2.172 1.87.234.385.265.378.599.037.885-.906 1.869-1.11 2.926-.841.432.109.562.681.276 1.167-.583.987-1.317 1.538-2.536 1.494zm.245-.623c.656-.051 1.286-.24 1.724-1.052.041-.08.03-.21.03-.319 0-.022-.056-.065-.093-.072a1.87 1.87 0 0 0-1.224.057c-.312.124-.609.341-.9.544-.178.124-.303.457-.224.544a.9.9 0 0 0 .296.225c.115.05.245.05.391.08zm-3.614-2.278c-.026.095-.099.21-.078.29.208.864.625 1.473 1.245 1.777.15.073.322.058.484.066.12.007.234-.218.182-.349-.083-.195-.146-.42-.255-.58-.411-.58-.896-1-1.458-1.233-.031-.014-.078.015-.115.022zm-7.957-27.362c.558-.021 1.057.232 1.52.624.282.232.548.515.818.776.256.247.328.283.542.022.453-.552 1-.79 1.557-1.008.437-.174.89-.225 1.349-.116.244.058.411.507.28.797-.067.145-.124.305-.207.42-.724 1.016-1.542 1.72-2.63 1.604-.287-.03-.578.029-.86.065-.697.101-1.296-.225-1.838-.82-.427-.47-.791-1-.963-1.747-.062-.276.094-.602.302-.602h.125zm5.025.972c-.578.007-1.114.254-1.604.704a.7.7 0 0 0-.156.253.9.9 0 0 0-.02.32c0 .028.062.065.104.08.765.238 1.343-.233 1.864-.936.047-.066.073-.24.042-.305-.032-.072-.146-.08-.23-.116m-2.832 1.284c-.037-.102-.052-.225-.105-.298a4.3 4.3 0 0 0-1.234-1.08.7.7 0 0 0-.359-.08c-.068 0-.14.08-.203.138-.01.007.016.109.036.152.26.61.662 1 1.12 1.262.177.102.396.094.599.094.047 0 .099-.123.15-.196zm-.063 27.594c-.005.34-.02.689-.015 1.03a3.1 3.1 0 0 1-.407 1.588c-.463.841-1.052 1.45-1.796 1.719-.104.036-.24-.036-.344-.102-.13-.08-.208-.406-.172-.594.26-1.371.745-2.539 1.615-3.344.12-.116.114-.268.02-.413-.109-.167-.229-.326-.338-.5-.396-.624-.568-1.386-.646-2.19a2.5 2.5 0 0 1 .11-1.009c.104-.333.395-.507.609-.326.432.363.77.849 1.005 1.48.291.797.395 1.515.36 2.668zm-.541 1.349c-.006-.355-.162-.486-.26-.45-.246.094-.433.305-.6.551-.333.508-.567 1.096-.734 1.74-.036.132-.01.233.083.284a.16.16 0 0 0 .115 0c.588-.327 1.026-.892 1.317-1.675.073-.189.073-.428.078-.45m-1.042-4.351c0 .957.25 1.77.823 2.357a.26.26 0 0 0 .11.065c.04.007.088.022.119 0a.2.2 0 0 0 .068-.138c-.026-.95-.245-1.784-.76-2.43a.4.4 0 0 0-.105-.086c-.036-.022-.099-.044-.114-.022-.052.065-.084.152-.136.254zm-.869-16.266c-.557.006-.994-.124-1.38-.494-.166-.16-.333-.34-.359-.66-.015-.189.156-.479.396-.58.469-.21.932-.464 1.432-.464.161 0 .328-.037.484-.095.063-.021.146-.152.151-.246.026-.399.026-.798.047-1.197a7.7 7.7 0 0 1 .568-2.603c.093-.232.406-.276.536-.087.828 1.196.906 3.053.172 4.395-.224.406-.495.768-.73 1.16-.369.624-.848.87-1.322.856zm2.057-4.2c-.03-.377-.026-.79-.224-1.117a.45.45 0 0 0-.187-.152c-.016-.007-.068.065-.083.109-.323.892-.406 1.842-.297 2.82.005.059.02.117.047.153.052.065.114.13.182.167.02.015.073-.044.104-.08.354-.53.484-1.175.458-1.9m-1.885 2.683c-.364.058-.703-.014-.984.254-.057.051-.088.174-.114.269-.006.021.046.101.078.116.229.094.458.217.692.268.292.058.557-.087.797-.312.052-.05.078-.181.094-.283.026-.137-.032-.21-.136-.225-.161-.029-.317-.065-.427-.087"/><path fill="#000" d="M88.77 44.972c-.082.71-.124 1.523-.275 2.292-.26 1.305-.849 2.212-1.849 2.487-.135.037-.343-.196-.338-.399 0-.224-.005-.464.036-.674.172-.79.48-1.458.953-1.958.162-.174.334-.334.495-.508.083-.087.099-.326.016-.45-.651-.993-.875-2.182-.818-3.495.016-.363.323-.566.552-.37.812.682 1.192 1.697 1.224 3.082zm-.51-.109c.021-.696-.093-1.341-.479-1.842-.026-.036-.088-.072-.109-.058-.057.044-.14.116-.146.189-.026.71.12 1.341.469 1.864.026.036.089.072.11.05.057-.05.098-.123.156-.203m-1.317 3.8q.072.188.214.102c.442-.283.671-.812.833-1.422a.3.3 0 0 0-.01-.166c-.047-.138-.115-.153-.209-.08-.411.319-.703.776-.844 1.414-.01.044.01.102.021.152zM62.255 7.297c.375.08.943.203 1.515.312.115.022.24-.029.36-.058.01 0 .026-.101.015-.123-.078-.123-.156-.261-.255-.356-.65-.609-1.312-1.196-1.963-1.805a3.4 3.4 0 0 1-.453-.573c-.026-.037.026-.196.057-.29.01-.037.073-.073.1-.058.15.087.301.166.442.29.661.587 1.317 1.182 1.973 1.776.089.08.167.059.209-.072.015-.036.005-.109-.01-.145-.318-.675-.641-1.342-.948-2.016a3 3 0 0 1-.188-.624c-.015-.08.057-.196.1-.29.01-.014.082 0 .114.036.093.11.198.203.265.341a448 448 0 0 1 1.86 3.663c.067.137.119.297.171.456.057.16-.01.486-.14.61-.1.094-.224.217-.329.195a166 166 0 0 1-3.17-.718.18.18 0 0 1-.11-.08c-.047-.08-.12-.18-.115-.268 0-.072.104-.137.172-.181.031-.022.083 0 .323-.014zm13.091 3.808c-.12-.61-.25-1.211-.359-1.82-.031-.16-.015-.334-.01-.501 0-.044.052-.116.083-.116a.43.43 0 0 1 .213.029c.032.014.058.08.068.13.292 1.255.573 2.51.865 3.764.078.341.088.668-.047.994-.172.42-.464.536-.714.24-.812-.973-1.62-1.944-2.426-2.923a.7.7 0 0 1-.146-.269c-.026-.094-.037-.232 0-.304.036-.073.167-.138.198-.102.427.442.849.9 1.27 1.364.094.101.151.101.188-.044a.3.3 0 0 0 0-.152c-.297-.617-.599-1.233-.896-1.85a15 15 0 0 1-.442-1.03c-.026-.072.01-.21.041-.297.052-.13.23-.101.308.058.145.276.286.559.432.834.38.747.76 1.494 1.15 2.234.032.058.12.065.183.094.01-.109.026-.217.036-.326zm-12.138 4.757c.656.102 1.312.21 1.969.305.114.014.244-.03.359-.073.052-.022-.146-.34-.328-.442a13 13 0 0 0-.927-.486c-.271-.13-.552-.225-.823-.363-.11-.058-.198-.181-.291-.29a.22.22 0 0 1-.042-.152c.01-.044.057-.08.099-.094.078-.037.161-.087.234-.066 1.02.29 1.99.755 2.828 1.654.161.174.312.377.453.58.265.377.229.674-.12.907-1.052.717-2.13 1.225-3.328.979-.109-.022-.145-.11-.104-.247.016-.05.026-.116.052-.138.068-.058.141-.13.22-.145.285-.05.572-.101.864-.116.463-.029.895-.203 1.317-.442a.23.23 0 0 0 .083-.124c.005-.021-.036-.087-.062-.101-.51-.254-1.047-.297-1.583-.348-.573-.058-1.146-.16-1.719-.254-.057-.007-.13-.138-.145-.232-.01-.058.072-.181.125-.203.12-.044.244-.051.364-.051.167 0 .328.007.495.014v-.05zm20.1 2.944c.032-.623.058-1.254.094-1.878.005-.094.078-.247.13-.254.11-.014.266-.014.334.08.395.522.645 1.182.796 1.907.35 1.683-.38 3.663-1.541 4.149-.812.34-1.531.021-2.166-.726-.115-.137-.115-.5.01-.616.167-.16.333-.348.52-.428.548-.24 1.11-.399 1.693-.348.11.007.219-.181.214-.34-.005-.516-.016-1.03-.021-1.546h-.073zm-.718 3.496c.245 0 .484-.065.672-.297.057-.066.135-.218.12-.254-.058-.13-.141-.312-.235-.334-.48-.123-.958-.116-1.396.261-.03.03-.083.095-.078.116.026.087.058.182.115.232.245.21.52.29.807.283zm1.317-4.127c-.036 0-.099.008-.099.022-.088.733-.093 1.45.183 2.125.015.036.057.073.083.065.036-.007.088-.043.099-.087.057-.21.146-.42.15-.63a3.15 3.15 0 0 0-.312-1.422c-.015-.036-.067-.05-.104-.073m10.316 40.591c-.01.145-.016.319-.031.486-.031.377-.281.761-.563.797-.203.03-.411.044-.609-.021-.406-.138-.765-.421-1.057-.834-.76-1.081-1.276-2.365-1.578-3.815-.02-.102 0-.225 0-.341s.146-.363.219-.37c.083-.014.166-.05.245-.029a6.2 6.2 0 0 1 1.973.914c.938.667 1.364 1.755 1.401 3.205zm-.49.014c.021-1.226-.374-2.161-1.192-2.698-.406-.26-.838-.442-1.26-.638-.063-.029-.167.022-.214.08a.44.44 0 0 0-.062.29c.224.856.536 1.66.958 2.364.208.341.458.653.719.914.156.152.37.218.567.276.266.08.5-.196.49-.588zm-1.801-35.97c-.084.116-.167.224-.255.34q-.18.067-.36.124c-.37.094-.572-.03-.718-.414a4.45 4.45 0 0 1-.308-1.813c.073-1.77.552-3.321 1.38-4.67.162-.261.521-.152.615.174.51 1.85.51 3.684-.094 5.497q-.126.39-.26.769zm.208-4.185a23 23 0 0 0-.115-.957.34.34 0 0 0-.15-.225c-.063-.022-.172.014-.209.08-.536.971-.786 2.11-.916 3.3-.058.514.036 1.015.203 1.486.078.232.255.283.395.145.24-.246.391-.58.506-.943.244-.797.333-1.631.286-2.886m-14.435 18.08c-.395.021-.75-.102-1.104-.276-.833-.399-1.562-1.03-2.176-1.907-.058-.08-.094-.189-.14-.276-.115-.225-.048-.616.145-.732a3.3 3.3 0 0 1 1.796-.523c.62 0 1.23.167 1.807.5.636.37 1.11.98 1.427 1.821.094.254.026.595-.135.762-.49.5-1.042.66-1.62.623zm-1.38-3.082c-.562.043-.979.014-1.338.377-.083.08-.099.174-.026.29.354.58.833.928 1.307 1.261.682.48 1.411.595 2.161.385a.59.59 0 0 0 .417-.326c.083-.167.005-.48-.183-.755-.26-.384-.572-.667-.921-.84-.505-.24-1.02-.45-1.417-.392m6.046 9.79c.719-.08 1.344.275 1.838 1.066.125.203.14.58.037.798-.339.718-.828 1.138-1.417 1.276-1.197.276-2.29-.116-3.265-1.146-.265-.283-.25-.761.047-.979.854-.616 1.75-1.008 2.755-1.015zm-.042.66c-.307.043-.588.08-.874.123-.412.065-.787.283-1.151.544-.063.043-.12.174-.125.268a.4.4 0 0 0 .12.254c.843.74 1.754.856 2.707.537.282-.094.516-.327.688-.675.057-.108.047-.37-.026-.464-.177-.246-.38-.442-.625-.5-.24-.051-.484-.066-.714-.094z"/><path fill="#000" d="M82.892 19.474c-.084.152-.156.37-.281.5a.7.7 0 0 1-.709.21 2.1 2.1 0 0 1-1.114-.703c-.677-.798-1.145-1.799-1.385-2.988-.042-.21-.01-.45-.01-.682 0-.108.192-.304.27-.297.084 0 .172-.015.245.022a6.5 6.5 0 0 1 1.864 1.32c.51.522.911 1.16 1.057 2.052.026.167.037.333.063.566m-.531-.233c0-.116.015-.232-.01-.34-.141-.624-.443-1.088-.808-1.48a4.6 4.6 0 0 0-1.286-.993c-.068-.03-.146-.015-.219-.015s-.093.312-.041.479c.182.58.421 1.11.723 1.58.276.436.604.784 1 .965.146.066.323.044.48.022.056-.007.103-.152.156-.225zm14.638 30.692c0-.312.083-.74.296-1.117.245-.428.558-.668.959-.66.16 0 .328.014.489.065.656.203 1.15.965 1.25 1.9.062.602-.287 1.545-.719 1.878-.49.377-1 .551-1.52.124-.552-.457-.755-1.175-.75-2.198zm1.421 1.74c.042 0 .083-.015.12-.015.5-.021.849-.565.942-1.13.094-.574-.166-1.22-.609-1.51a1.3 1.3 0 0 0-.349-.152c-.625-.174-1.14.48-1.078 1.364.016.225.063.442.12.653.146.536.438.797.849.783zM74.263 26.835c.026 1.138-.541 2.066-1.317 2.182-.547.087-.969-.26-1.266-.87-.4-.82-.307-2.038.245-2.669.432-.493.943-.674 1.505-.348.563.334.802.943.833 1.704m-2.317.304c.02.696.38 1.204.86 1.204.562 0 1.04-.667 1.02-1.414-.021-.755-.448-1.335-.948-1.284-.599.058-.953.624-.927 1.501zM69.15 2.721a.85.85 0 0 1-.526-.399 1.92 1.92 0 0 1-.063-1.77c.24-.478.583-.623.98-.521.317.087.489.391.598.79.255.95-.27 1.922-.99 1.9m.047-.682c.208.037.458-.224.53-.558.074-.319-.098-.696-.338-.747-.198-.043-.422.123-.49.363-.088.333-.01.718.188.877.037.03.073.044.11.065m28.48 26.441a.85.85 0 0 1-.526-.398 1.92 1.92 0 0 1-.063-1.77c.24-.478.583-.623.979-.522.318.087.49.392.599.79.255.95-.27 1.923-.99 1.9m.052-.681c.208.036.458-.225.53-.558.074-.32-.098-.697-.338-.747-.198-.044-.422.123-.49.362-.088.334-.01.718.188.878.037.029.073.043.11.065"/><path fill="#000" d="M87.526 20.852c.115 2.502.172 4.692.323 6.875.193 2.871.635 5.685 1.203 8.463.042.217.135.413.214.616.01.03.062.05.093.044.037-.008.1-.037.105-.073.041-.217.098-.442.104-.667.104-2.415.349-4.815.609-7.201.177-1.654.36-3.3.541-4.954.032-.282.084-.565.25-.761a.17.17 0 0 1 .115-.058c.031 0 .083.058.083.094.021.218.058.45.037.667-.177 1.596-.396 3.177-.547 4.772-.245 2.625-.453 5.258-.672 7.89-.026.283-.02.574-.026.864a8.2 8.2 0 0 0 .531 3.118c1.438 3.713 2.625 7.571 3.614 11.545.026.095.089.174.14.254.006.007.074-.029.079-.058.026-.225.073-.45.068-.674-.084-2.248.005-4.497.078-6.737a51 51 0 0 1 .479-5.483c.01-.08.11-.152.177-.181.099-.044.224.166.213.333-.005.116-.005.232-.015.341-.042.457-.073.914-.13 1.37-.209 1.654-.26 3.322-.318 4.99-.094 2.821-.099 5.642.187 8.456.136 1.313.162 2.64.412 3.93.541 2.793.76 5.657 1.02 8.515.016.167.006.348.006.515 0 .268-.151.544-.266.493-.135-.065-.172-.218-.182-.377a31 31 0 0 1-.073-1.204 12 12 0 0 0-1.15-4.685c-.272-.573-.584-1.117-.876-1.675-.135-.261-.146-.544-.02-.602.197-.094.307.109.406.268.291.486.567.994.854 1.48.03.05.12.036.182.036.01 0 .031-.109.026-.16-.162-1.008-.313-2.023-.49-3.031-.4-2.299-.932-4.54-1.484-6.774-.15-.616-.38-1.145-.74-1.559-2.025-2.299-4.28-3.909-6.889-4.43-.489-.102-.984-.19-1.473-.305-.063-.015-.11-.153-.162-.24.068-.058.13-.167.203-.174.62-.094 1.24-.014 1.85.138 1.733.428 3.327 1.342 4.837 2.589q.477.393.963.776c.099.08.13.029.089-.109-.032-.101-.042-.217-.094-.304-.313-.537-.604-1.095-.948-1.596-1.317-1.922-2.718-3.713-4.244-5.308-1.973-2.06-4.119-3.634-6.493-4.57a7 7 0 0 1-.818-.384c-.062-.036-.099-.166-.146-.253.1-.073.198-.189.302-.196.162 0 .328.05.49.109a17.1 17.1 0 0 1 4.9 2.864c1.755 1.45 3.333 3.213 4.817 5.142.546.703 1.072 1.436 1.614 2.154.083.109.156.087.187-.03a.35.35 0 0 0 .021-.159 5 5 0 0 0-.125-.486 77 77 0 0 0-3.317-8.492 45 45 0 0 0-3.02-5.475 11 11 0 0 0-.88-1.219c-.73-.855-1.453-1.718-2.218-2.502-2.64-2.697-5.38-5.17-8.384-7.012-2.047-1.255-4.156-2.256-6.343-2.93-.078-.022-.166-.087-.24-.066-.114.037-.255.087-.317.203-.172.32-.297.69-.463 1.023-.313.631-.74 1.11-1.255 1.363-1.839.914-3.5.443-4.963-1.348-.312-.385-.547-.856-.719-1.393a3.35 3.35 0 0 1-.026-2.009c.506-1.718 1.76-2.893 3.125-2.879.666.008 1.317.174 1.91.638.99.776 1.891 1.668 2.323 3.22.1.363.308.508.563.588 3.92 1.167 7.566 3.278 10.972 6.215.63.544 1.26 1.095 1.895 1.639.026.022.078.014.11-.007.078-.066.062-.153-.021-.254-.938-1.132-1.844-2.32-2.812-3.394-3.203-3.561-6.395-7.13-9.748-10.422-.438-.427-.907-.812-1.323-1.283-.51-.566-.969-.71-1.552-.152-.479.456-1.057.66-1.65.623-.204-.014-.417-.029-.61-.109-2.177-.964-3.213-3.343-3.286-6.04-.041-1.603.708-2.706 1.875-2.872 1.187-.167 2.208.37 3.067 1.472.781 1.008 1.281 2.248 1.427 3.742.047.515.062 1.03.078 1.545.01.253.11.427.234.58.063.072.136.138.203.203 2.87 2.632 5.583 5.562 8.285 8.514 1.823 1.994 3.656 3.974 5.4 6.099.125.152.266.268.401.391.016.015.068-.014.089-.043.026-.036.052-.102.041-.138a1.2 1.2 0 0 0-.114-.304c-1.255-2.43-2.515-4.86-3.77-7.296-.12-.232-.25-.457-.37-.696-.203-.406-.453-.631-.828-.617-.328.008-.656-.087-.984-.138-.516-.08-.948-.427-1.307-.92-1.01-1.407-1.573-3.075-1.5-5.113.042-1.204.807-2.43 1.765-2.437 1.063-.007 1.953.537 2.562 1.755.771 1.552.953 3.285.651 5.113a5 5 0 0 1-.203.812c-.135.37-.047.66.11.95.656 1.262 1.307 2.524 1.963 3.778l2.187 4.2a55 55 0 0 0 2.25 3.908c1.176 1.857 2.27 3.815 3.452 5.664.547.856 1.03 1.806 1.541 2.713.12.21.182.5.422.522.088-.24-.016-.443-.052-.66-.188-1.24-.401-2.473-.557-3.72a8.8 8.8 0 0 0-.542-2.096c-1.088-2.872-2.458-5.461-4.004-7.884-.167-.26-.334-.507-.5-.768-.104-.16-.089-.4.015-.45.13-.072.245-.014.328.102.266.362.526.732.771 1.124a45 45 0 0 1 3.036 5.678c.104.24.24.457.365.675.015.021.104.014.104 0 .026-.11.057-.225.052-.334-.037-1.443-.1-2.88-.12-4.315-.047-2.763-.073-5.533-.099-8.296 0-.167.037-.334.063-.5a.23.23 0 0 1 .062-.11c.068.044.162.08.193.16.057.145.099.319.11.486.025.515.051 1.037.051 1.552 0 1.842-.005 3.684-.01 5.214zm-23.974-1.103c.203-.029.453-.036.692-.101.755-.203 1.39-.682 1.833-1.603a2.58 2.58 0 0 0 .141-1.958 3.8 3.8 0 0 0-.39-.87c-.532-.82-1.172-1.458-1.907-1.872-1.015-.572-2.01-.55-2.957.305-.464.42-.823.957-1.047 1.66-.193.617-.193 1.248.042 1.828.161.392.364.77.604 1.081.822 1.08 1.828 1.508 2.989 1.53M61.458 1.365a5 5 0 0 0-.333.065c-.895.203-1.4 1.016-1.328 2.27.12 2.132.771 3.837 2.177 4.88 1.015.755 1.979.61 2.916-.231.13-.116.219-.334.302-.522.136-.305.151-.653.13-1.001-.12-1.791-.614-3.314-1.65-4.453-.636-.703-1.37-1.03-2.214-1.008m14.748 9.61c-.053-.567-.068-1.03-.146-1.48-.297-1.705-.98-2.887-2.276-3.242-.843-.232-1.593.442-1.739 1.624a5.8 5.8 0 0 0-.01 1.197c.114 1.168.489 2.183 1.015 3.104.526.914 1.213 1.349 2.052 1.334.494-.014.776-.254.906-.942.104-.552.14-1.125.192-1.596zM53.83 18.052c-.01.718-.422 1.27-.953 1.276-.625.008-1.11-.623-1.12-1.464-.01-.842.469-1.48 1.104-1.465.563.007.98.725.964 1.66zm-.932.573c.26-.029.49-.326.49-.645 0-.479-.282-.936-.584-.95-.313-.015-.573.456-.526.964.036.413.286.667.625.631zM27.34 119.698c0-.312.083-.74.297-1.117.245-.428.557-.667.958-.66.161 0 .328.015.49.065.656.204 1.15.965 1.25 1.9.062.602-.287 1.545-.72 1.879-.489.377-1 .551-1.52.123-.552-.457-.755-1.175-.75-2.197zm1.427 1.74c.041 0 .083-.014.12-.014.5-.022.848-.566.942-1.131.094-.573-.166-1.219-.61-1.509a1.3 1.3 0 0 0-.348-.152c-.625-.174-1.14.479-1.078 1.363.016.225.063.443.12.653.146.537.437.798.849.783zM2.83 91.908c.025 1.138-.542 2.067-1.318 2.183-.547.087-.969-.261-1.266-.87-.4-.82-.307-2.038.245-2.67.432-.493.942-.674 1.505-.347.562.333.802.942.833 1.704m-2.318.297c.02.696.38 1.204.859 1.204.562 0 1.041-.667 1.02-1.414-.02-.754-.447-1.335-.947-1.284-.599.058-.953.624-.927 1.501zm30.011 52.549a.85.85 0 0 1-.526-.399 1.92 1.92 0 0 1-.063-1.769c.24-.479.584-.624.98-.523.317.088.489.392.598.791.255.95-.27 1.922-.99 1.9m.047-.682c.208.037.458-.224.53-.558.074-.319-.098-.696-.338-.747-.198-.044-.422.123-.49.363-.088.333-.01.718.188.877.037.029.073.044.11.065m-12.158-5.946a.85.85 0 0 1-.526-.399 1.92 1.92 0 0 1-.063-1.77c.24-.478.583-.623.979-.522.318.087.49.392.599.791.255.95-.271 1.921-.99 1.9m.046-.682c.209.036.459-.225.531-.559.073-.319-.098-.696-.338-.746-.198-.044-.422.123-.49.362-.088.334-.01.718.188.878.036.029.073.043.11.065m-12.867-28.98c.094 1.625-.344 3.032-.927 4.381-.02.05-.057.079-.088.123-.1.145-.37.138-.448-.022-.026-.043-.068-.072-.084-.123-.343-.994-.609-2.023-.588-3.14.031-1.559.469-2.771 1.578-3.365.15-.08.166-.247.13-.414-.031-.159-.104-.297-.167-.442-.015-.036-.088-.072-.104-.058-.203.203-.39.421-.593.616-.74.733-1.557 1.008-2.458.856-.386-.065-.547-.536-.334-1.008.089-.196.172-.399.282-.566.744-1.095 1.635-1.718 2.75-1.624.447.036.9.036 1.244.58.099.16.291.21.432.319 1.12.892 1.692 2.299 1.947 4.003.006.051-.01.109-.01.167 0 .261-.266.522-.448.443-.442-.189-.828-.515-1.187-.9-.23-.246-.432-.529-.661-.776-.058-.058-.151-.05-.23-.058-.01 0-.036.095-.036.145zm-.365.24a153 153 0 0 0-.244-1.226c-.032-.145-.214-.203-.302-.13-.224.181-.365.456-.485.761-.473 1.218-.349 2.422.073 3.604.016.044.063.109.089.102.068-.015.156-.036.187-.102.39-.899.557-1.892.682-3.017zm-.859-4.323c-.921-.014-1.51.341-2.182 1.328-.083.123-.104.406-.03.464.067.05.15.13.223.123.812-.072 1.515-.5 2.093-1.305a.4.4 0 0 0 .068-.138c.02-.109.068-.239.042-.319s-.136-.102-.209-.153zm2.953 3.764c.031-.021.083-.029.094-.065.03-.094.083-.218.062-.305-.219-1.095-.693-1.929-1.385-2.531-.037-.029-.073-.058-.115-.065-.078-.014-.208-.065-.234-.014-.068.123-.146.312-.12.435.25 1.167.839 1.936 1.573 2.524.031.029.078.014.12.021zm5.978 26.558c.14 1.581-.203 3.089-.854 4.474-.089.189-.224.334-.344.486-.094.116-.38.036-.448-.109-.041-.094-.104-.181-.13-.283-.323-1.269-.406-2.574-.349-3.908.021-.465.11-.907.245-1.328.047-.145.094-.362-.052-.449a.4.4 0 0 0-.344-.015c-.396.167-.776.385-1.171.544-.151.058-.323.036-.49.022-.198-.007-.37-.384-.297-.638.063-.211.115-.435.214-.617.515-.942 1.166-1.61 1.994-1.936.438-.167.865-.363 1.302-.522a.5.5 0 0 1 .36 0c1.067.457 1.905 1.341 2.478 2.683.078.189.083.435.12.653.015.109-.14.391-.208.377-.204-.029-.422 0-.605-.109-.421-.225-.822-.522-1.239-.776-.094-.058-.177.007-.177.131-.005.399 0 .797 0 1.298zm-1.729 1.218c-.016.812.135 1.581.25 2.364.01.087.094.196.156.21.063.015.172-.036.203-.108.719-1.523.87-3.162.51-4.91-.03-.152-.203-.232-.286-.131-.562.682-.807 1.552-.833 2.568zm-1.817-2.749c.01.044.005.102.026.131.026.036.073.08.104.065.682-.21 1.328-.536 1.87-1.175.062-.072.135-.145.166-.246.041-.131.062-.29.068-.435 0-.022-.146-.087-.22-.073-.785.21-1.452.711-1.968 1.574-.026.043-.03.101-.046.152zm4.816.116c.073-.014.146-.021.224-.036-.01-.094.006-.21-.026-.283a4.4 4.4 0 0 0-1.27-1.53c-.068-.051-.151-.065-.235-.08-.03 0-.078.037-.099.073-.02.036-.036.101-.02.138.27.899.833 1.334 1.426 1.711zm4.989-23.206c.219.42.422.783.604 1.16.463.964.776 2.016.958 3.147.026.16.026.363-.031.494a.53.53 0 0 1-.286.261c-.063.029-.167-.022-.235-.08a6.77 6.77 0 0 1-1.968-3.213c-.39-1.371-.224-2.632.495-3.655.838-1.189 1.895-1.777 3.108-1.762.079 0 .167.051.224.116.058.065.12.181.115.268-.01.16-.042.348-.11.479-.588 1.146-1.317 2.045-2.301 2.473-.188.08-.37.196-.578.312zm.042-.834c.15-.044.364-.058.552-.16.546-.29 1.025-.725 1.416-1.334.078-.116.104-.29.156-.443-.114-.036-.24-.13-.343-.101-.646.21-1.245.58-1.755 1.189a2 2 0 0 0-.245.384c-.042.088-.083.24-.052.312s.14.087.27.145zm-.656 1.784c.02.145.02.326.062.478.25.921.62 1.726 1.198 2.306.031.029.104.066.11.058.04-.087.108-.195.098-.275-.203-1.117-.568-2.11-1.229-2.843-.026-.029-.104-.043-.114-.022-.047.08-.079.182-.125.298m-10.91 12.024c-.557.21-1.104.457-1.666.623-.23.066-.49-.007-.73-.065-.181-.036-.312-.45-.26-.689.11-.508.313-.935.578-1.312.724-1.009 1.594-1.581 2.599-1.872.875-.253 1.53.153 2.13.95q.048.057.088.124c.568.892.865 1.943.943 3.118.02.283-.25.53-.432.421-.662-.392-1.203-1.001-1.61-1.828-.14-.283-.25-.594-.38-.892-.104-.239-.234-.239-.38.008-.208.348-.411.71-.62 1.073-.088.109-.171.217-.26.333zm-1.791.021c1.073-.166 1.953-.834 2.453-2.32.015-.044.015-.145-.006-.167-.062-.065-.145-.16-.208-.138-1.005.261-1.833.928-2.437 2.089a.56.56 0 0 0-.047.319c.016.072.115.109.245.225zm4.853-.029c-.156-.892-.484-1.639-1.026-2.204-.099-.109-.297-.131-.323-.022a.8.8 0 0 0-.036.305c.167.921.578 1.602 1.125 2.124.041.044.14-.014.203-.043.026-.015.031-.087.052-.16zm7.477-18.065c.168.029.412.073.652.124.15.029.24.37.15.551-.046.094-.083.196-.135.283-.609.986-1.353 1.66-2.301 1.842a16 16 0 0 0-.61.123c-.12.029-.177.225-.114.392q.125.291.25.594c.479 1.153.75 2.415.942 3.706.026.16 0 .341-.015.508-.01.174-.276.37-.39.297-.037-.022-.084-.022-.115-.051a6.15 6.15 0 0 1-1.583-2.364c-.521-1.385-.49-2.719.203-4.032.63-1.197 1.453-1.82 2.494-1.929.167-.015.328-.029.573-.044m-1.785 6.846a10.7 10.7 0 0 0-.584-2.248 9 9 0 0 0-.39-.863c-.042-.072-.14-.138-.208-.123-.052.007-.115.145-.125.232-.136 1.327.349 2.292.963 3.176.115.167.276.24.302.138s.031-.21.047-.304zm-.271-4.67c.854-.065 1.245-.268 1.895-1.008.11-.123.178-.384.115-.435-.068-.051-.151-.123-.219-.116-.661.065-1.286.29-1.828.856-.093.101-.171.232-.25.362a.3.3 0 0 0-.015.167.17.17 0 0 0 .068.109c.072.036.156.051.234.072z"/><path fill="#000" d="M8.849 115.782c.541.036.942.058 1.348.217.724.29 1.224.914 1.531 1.842.193.573.339 1.168.271 1.828-.015.174-.234.413-.36.355a2.7 2.7 0 0 1-.452-.246c-.64-.472-1.068-1.226-1.422-2.089-.11-.261-.208-.254-.385-.022-.177.24-.344.501-.531.718q-.735.847-1.687.943c-.495.051-.985.051-1.469-.116-.234-.08-.375-.529-.255-.827.057-.152.11-.312.187-.435.88-1.428 1.995-2.154 3.224-2.161zm-.172.703c-1.005.073-1.833.595-2.484 1.625a.47.47 0 0 0-.047.304.3.3 0 0 0 .167.196c.53.189 1.062.073 1.562-.174.547-.268.995-.769 1.276-1.508.052-.131-.031-.37-.13-.392-.12-.022-.24-.043-.339-.065zm2.645 2.575c.026-.022.063-.037.084-.066a.3.3 0 0 0 .041-.152c-.104-.906-.411-1.61-1.03-1.994-.063-.036-.173-.036-.225.014-.047.051-.073.211-.052.29.198.711.516 1.313.963 1.763.068.065.146.101.224.152zM4.47 100.552c-.12-.014.051-.029.208.029.479.174.947.305 1.453.124.322-.116.666.065.952.282.76.588 1.266 1.451 1.328 2.713 0 .058-.01.116-.01.167-.01.333-.302.616-.536.507a4.65 4.65 0 0 1-2.146-1.929c-.229-.391-.26-.384-.599-.051-.9.885-1.885 1.059-2.937.762-.427-.123-.552-.696-.255-1.175.599-.972 1.338-1.501 2.557-1.429zm-.261.617c-.656.036-1.291.203-1.74 1.001-.04.072-.036.21-.036.319 0 .021.058.065.094.072.411.123.823.123 1.224-.022.312-.116.609-.326.906-.514.182-.117.307-.45.234-.537a.85.85 0 0 0-.297-.232c-.114-.051-.244-.058-.39-.087zm3.583 2.378c.03-.094.099-.21.083-.282-.198-.871-.604-1.494-1.219-1.813-.145-.08-.322-.066-.484-.08-.12-.015-.24.21-.187.341.078.195.14.42.25.587.4.588.885 1.023 1.442 1.276.031.015.078-.014.115-.021zm7.571 27.573c-.557 0-1.052-.261-1.515-.66-.281-.239-.542-.529-.807-.798-.25-.246-.328-.29-.542-.036-.458.537-1.01.762-1.572.965a2.26 2.26 0 0 1-1.35.079c-.244-.065-.4-.514-.27-.805.068-.145.13-.297.213-.413.735-.993 1.568-1.675 2.651-1.53.286.036.578-.015.864-.044.703-.079 1.297.261 1.823.871.417.478.781 1.022.937 1.776.058.276-.104.595-.312.595h-.125zm-5.01-1.11c.579 0 1.12-.224 1.615-.659a.56.56 0 0 0 .156-.254 1 1 0 0 0 .026-.319c0-.029-.062-.066-.104-.08-.76-.261-1.349.196-1.875.885-.046.065-.078.239-.046.304.03.073.14.08.229.123m2.85-1.203c.03.101.046.224.103.297.354.479.77.841 1.219 1.117.11.065.234.087.354.094.068 0 .14-.072.208-.13.01-.008-.015-.109-.036-.153a2.7 2.7 0 0 0-1.1-1.298c-.176-.109-.395-.101-.593-.116-.047 0-.104.123-.156.189m.452-27.595c.01-.341.031-.689.031-1.03 0-.601.167-1.124.427-1.58.474-.827 1.073-1.422 1.818-1.669.104-.036.234.044.343.11.13.08.203.413.162.601-.281 1.364-.781 2.517-1.661 3.3-.125.109-.12.261-.026.413.109.174.224.334.333.508.385.638.547 1.4.614 2.212q.038.522-.12 1.001c-.109.333-.406.493-.614.312-.427-.378-.76-.871-.979-1.509-.281-.805-.375-1.53-.323-2.676zm.563-1.327c0 .355.156.493.255.457.244-.087.437-.29.609-.537.344-.5.583-1.08.76-1.718.037-.13.016-.233-.078-.283a.11.11 0 0 0-.114 0c-.594.312-1.042.863-1.339 1.632-.073.188-.078.427-.083.45zm.979 4.373c.01-.957-.23-1.769-.792-2.379a.2.2 0 0 0-.11-.065c-.041-.014-.088-.022-.12 0a.2.2 0 0 0-.072.138c.01.95.219 1.791.729 2.451a.3.3 0 0 0 .104.087c.037.022.1.051.115.022.052-.065.088-.152.14-.254zm.64 16.288c.557.008.99.153 1.37.53.166.167.328.348.348.667.01.196-.166.471-.4.573-.47.196-.938.435-1.443.428-.161 0-.328.022-.484.08-.063.021-.146.152-.156.239-.037.399-.042.798-.063 1.197a7.6 7.6 0 0 1-.604 2.589c-.099.224-.411.268-.542.072-.812-1.218-.864-3.075-.109-4.402.23-.399.505-.754.745-1.139.38-.609.864-.848 1.333-.819zm-2.12 4.149c.027.377.016.79.209 1.124.042.072.12.116.187.152.016.007.068-.065.089-.109.338-.885.432-1.827.333-2.814-.005-.058-.02-.123-.047-.152a.7.7 0 0 0-.177-.167c-.02-.014-.078.044-.104.08-.364.522-.5 1.16-.49 1.893zm1.927-2.64c.37-.044.698.029.99-.225.057-.051.088-.167.12-.268.005-.022-.042-.102-.079-.116-.229-.102-.453-.232-.687-.283-.286-.065-.557.072-.802.29-.052.051-.078.181-.099.283-.026.138.026.21.13.232.156.029.318.072.427.094z"/><path fill="#000" d="M11.5 100.98c.093-.71.145-1.523.312-2.284.28-1.298.88-2.183 1.885-2.437.135-.036.338.203.333.406-.005.225 0 .464-.047.675-.182.783-.495 1.443-.984 1.936-.167.167-.338.326-.505.493-.089.087-.104.319-.021.45.635 1.015.844 2.204.765 3.517-.02.363-.327.558-.557.355-.802-.703-1.166-1.733-1.176-3.111zm.51.131c-.032.696.078 1.341.453 1.856.026.037.083.08.109.058.057-.043.14-.116.146-.181.036-.711-.1-1.342-.443-1.878-.026-.037-.088-.073-.11-.058-.056.043-.098.123-.155.195zm1.374-3.771q-.068-.195-.208-.11c-.448.276-.687.791-.849 1.4a.3.3 0 0 0 .005.167c.042.138.115.153.209.087.416-.311.713-.761.864-1.385.01-.043-.01-.101-.015-.152zm24.1 42.04c-.37-.087-.937-.232-1.51-.348-.115-.022-.24.022-.36.051-.01 0-.026.101-.015.123.078.131.15.268.25.363.646.623 1.296 1.233 1.937 1.856.166.16.307.37.442.588.027.043-.03.196-.062.283-.01.036-.078.065-.099.05-.15-.087-.302-.174-.437-.297a166 166 0 0 1-1.948-1.835c-.088-.087-.161-.065-.208.073a.2.2 0 0 0 .01.145c.307.681.62 1.356.922 2.045.083.188.14.413.177.624.016.079-.057.195-.104.282-.01.015-.084-.007-.115-.043-.093-.109-.198-.21-.26-.348-.61-1.233-1.208-2.473-1.807-3.706-.068-.138-.115-.305-.167-.457-.052-.16.016-.486.151-.609.1-.087.23-.21.328-.189 1.057.254 2.11.53 3.161.805a.22.22 0 0 1 .11.08c.046.087.12.189.109.276-.005.072-.11.13-.172.181-.031.022-.083 0-.323 0zm-13.039-4.17c.114.609.234 1.219.333 1.828.026.159.016.333.005.5 0 .044-.052.109-.083.116a.37.37 0 0 1-.214-.036c-.03-.015-.057-.087-.067-.138l-.813-3.785c-.073-.349-.078-.668.058-.987.177-.413.468-.522.713-.225.802.994 1.594 1.995 2.385 2.988.057.073.12.167.146.269.026.094.036.232 0 .304-.037.073-.167.138-.203.102a52 52 0 0 1-1.25-1.4c-.089-.101-.151-.109-.187.036-.01.044-.021.116 0 .153.286.623.583 1.247.87 1.871.15.341.296.689.426 1.044.026.073-.01.21-.047.297-.052.131-.229.095-.307-.065l-.422-.848c-.37-.755-.74-1.516-1.12-2.263-.03-.065-.12-.065-.182-.102-.015.109-.026.218-.041.327zm12.205-4.424c-.655-.123-1.306-.246-1.962-.355-.115-.022-.245.022-.36.065-.052.022.14.341.318.45.302.181.61.355.916.515.271.138.552.239.818.392.11.058.198.188.286.297a.25.25 0 0 1 .037.159c-.01.044-.063.08-.1.095-.077.029-.16.079-.233.058-1.016-.319-1.98-.813-2.802-1.726a5.5 5.5 0 0 1-.448-.595c-.26-.384-.219-.682.13-.907 1.063-.688 2.15-1.167 3.343-.884.11.029.141.116.1.246-.016.051-.027.116-.053.138-.067.058-.145.123-.218.138a9 9 0 0 1-.865.094c-.463.022-.896.181-1.323.406a.23.23 0 0 0-.083.124c-.005.021.031.087.063.108.505.269 1.041.327 1.578.392.572.072 1.145.189 1.713.305.057.014.13.145.14.232.01.058-.073.181-.13.203-.12.043-.245.043-.37.043a6 6 0 0 1-.494-.029v.051zm-20.058-3.495c-.042.624-.073 1.255-.125 1.878-.005.094-.083.247-.135.254-.11.015-.266 0-.334-.094-.385-.537-.63-1.204-.765-1.929-.328-1.69.432-3.648 1.599-4.105.817-.319 1.53.022 2.155.79.115.138.105.501-.02.617-.172.152-.339.341-.526.413-.552.225-1.12.37-1.698.305-.11-.015-.219.174-.219.333v1.545h.073zm.77-3.474c-.244 0-.483.051-.676.283-.058.065-.14.21-.125.254.052.138.135.312.229.341.479.137.958.137 1.4-.218.032-.029.09-.094.079-.116-.026-.087-.057-.188-.11-.232a1.15 1.15 0 0 0-.801-.305zm-1.374 4.09c.037 0 .099 0 .099-.021.099-.733.11-1.451-.151-2.133-.016-.036-.057-.072-.083-.065-.037.007-.089.044-.1.087-.062.203-.15.414-.155.624a3.1 3.1 0 0 0 .291 1.429c.016.036.068.05.104.072zM6.245 87.042c.01-.145.02-.32.037-.486.036-.377.291-.754.572-.784.203-.021.417-.029.604.044.401.145.76.435 1.047.863.745 1.102 1.24 2.4 1.526 3.858.02.102 0 .225 0 .341s-.151.355-.224.363c-.083.007-.167.043-.245.021-.682-.21-1.343-.507-1.963-.971-.927-.69-1.338-1.792-1.354-3.25m.495 0c-.037 1.225.343 2.168 1.156 2.726.4.276.833.465 1.255.675.062.029.166-.015.213-.08a.43.43 0 0 0 .068-.29c-.214-.863-.51-1.675-.922-2.386a5 5 0 0 0-.703-.928c-.156-.16-.37-.225-.562-.29-.266-.087-.5.181-.5.573zm1.291 36.015c.089-.109.172-.218.26-.334.12-.036.24-.08.36-.109.375-.087.567.044.713.435a4.5 4.5 0 0 1 .281 1.821c-.098 1.762-.598 3.307-1.447 4.627-.167.253-.526.137-.61-.189-.484-1.864-.458-3.699.172-5.49.089-.254.183-.508.271-.761m-.27 4.177c.005.065.041.515.098.957.01.087.089.203.151.225.063.029.172-.015.209-.08.546-.957.812-2.088.958-3.27.062-.515-.021-1.016-.182-1.494-.079-.232-.25-.291-.391-.153-.245.24-.401.566-.516.929-.255.79-.359 1.624-.328 2.879zm14.689-17.681c.396-.007.75.124 1.099.305.828.42 1.547 1.073 2.146 1.965.057.08.093.189.14.283.115.225.037.616-.156.732a3.3 3.3 0 0 1-1.807.472 3.7 3.7 0 0 1-1.802-.551c-.63-.385-1.093-1.008-1.4-1.864-.09-.254-.021-.595.145-.762a1.96 1.96 0 0 1 1.625-.58zm1.339 3.119c.562-.029.979.007 1.343-.341.083-.08.099-.174.031-.29-.349-.588-.817-.95-1.291-1.298-.677-.501-1.4-.639-2.156-.443-.161.044-.312.109-.422.312-.083.167-.015.479.172.754.255.392.563.689.911.863.506.254 1.016.479 1.412.435zm-5.911-9.95c-.718.058-1.338-.312-1.822-1.117-.125-.203-.13-.58-.021-.798.349-.703.843-1.117 1.432-1.24 1.203-.246 2.291.181 3.244 1.233.266.29.24.769-.062.979-.86.595-1.766.957-2.77.943m.052-.66c.308-.036.594-.066.875-.102.412-.051.792-.261 1.161-.507a.42.42 0 0 0 .13-.261.44.44 0 0 0-.114-.262c-.833-.768-1.744-.906-2.697-.609-.287.087-.521.319-.693.653-.057.109-.052.37.02.464.178.247.37.457.62.515.24.058.485.08.709.109z"/><path fill="#000" d="M17.02 126.638c.082-.152.16-.37.29-.493a.72.72 0 0 1 .709-.196c.411.116.786.348 1.104.74.666.819 1.125 1.828 1.343 3.024.042.21.005.45 0 .682 0 .109-.198.297-.276.29-.083-.007-.172.014-.244-.029a6.8 6.8 0 0 1-1.849-1.371c-.5-.536-.896-1.189-1.031-2.081-.026-.167-.031-.334-.052-.566zm.525.24c0 .116-.02.232 0 .34.135.631.427 1.095.786 1.502a4.5 4.5 0 0 0 1.276 1.029c.063.037.146.022.219.022s.099-.304.047-.478a6.5 6.5 0 0 0-.703-1.603c-.271-.443-.594-.798-.985-.994-.145-.072-.322-.058-.479-.036-.057.007-.109.145-.161.225z"/><path fill="#000" d="M12.405 125.137c-.078-2.509-.109-4.699-.224-6.882-.15-2.879-.557-5.7-1.083-8.492-.041-.218-.13-.414-.208-.617-.01-.029-.062-.051-.094-.051-.036 0-.099.037-.104.073-.047.217-.104.435-.114.66-.136 2.415-.417 4.801-.709 7.187q-.303 2.469-.614 4.938c-.037.283-.089.559-.26.755-.032.036-.079.058-.115.05-.031 0-.083-.058-.083-.101-.016-.218-.052-.45-.026-.667.198-1.589.442-3.17.614-4.758.281-2.618.526-5.243.781-7.868.026-.283.031-.573.042-.863a8.2 8.2 0 0 0-.484-3.133c-1.38-3.75-2.52-7.637-3.453-11.647-.02-.094-.088-.181-.14-.261-.006-.007-.073.029-.079.05-.03.225-.083.45-.078.668.052 2.248-.073 4.496-.172 6.737a50 50 0 0 1-.557 5.468c-.01.073-.11.145-.182.181-.099.044-.224-.166-.213-.333.01-.116.01-.232.02-.341.047-.457.089-.914.151-1.364.235-1.646.308-3.314.386-4.982.135-2.813.182-5.642-.068-8.456-.115-1.312-.125-2.647-.354-3.938-.5-2.806-.682-5.678-.901-8.535-.016-.174 0-.348 0-.515 0-.269.161-.537.27-.486.136.065.167.217.178.384.026.4.042.805.052 1.204a12 12 0 0 0 1.088 4.714c.266.58.568 1.131.854 1.697.136.261.14.551.016.602-.203.087-.307-.116-.401-.283-.281-.493-.552-1.008-.833-1.501-.031-.05-.12-.044-.183-.036-.01 0-.03.108-.026.16.146 1.014.287 2.03.448 3.045.37 2.306.87 4.562 1.385 6.81.146.624.365 1.153.72 1.574 1.988 2.356 4.222 4.024 6.826 4.619.49.109.979.218 1.468.348.063.015.104.16.157.24-.068.058-.136.159-.204.166-.624.08-1.239-.021-1.848-.188-1.724-.479-3.312-1.429-4.801-2.72-.313-.275-.636-.536-.953-.797-.1-.08-.13-.037-.094.108.031.102.042.225.089.305.302.544.588 1.117.926 1.624 1.287 1.958 2.661 3.786 4.166 5.425 1.943 2.11 4.067 3.742 6.431 4.743q.414.174.813.413c.062.036.093.167.14.254-.099.065-.203.189-.302.189a1.3 1.3 0 0 1-.484-.124 17.5 17.5 0 0 1-4.858-3.002c-1.735-1.501-3.286-3.307-4.744-5.272-.537-.718-1.052-1.465-1.583-2.198-.084-.109-.151-.094-.188.029-.015.051-.036.109-.026.16.031.167.068.326.12.486a79 79 0 0 0 3.197 8.579c.865 1.972 1.864 3.807 2.942 5.562.271.435.552.863.865 1.24.713.878 1.427 1.763 2.182 2.568 2.598 2.77 5.306 5.315 8.285 7.245 2.03 1.312 4.124 2.364 6.3 3.103.079.029.167.087.24.066.114-.029.255-.08.318-.189.177-.319.307-.682.479-1.008.322-.624.755-1.088 1.27-1.334 1.849-.863 3.505-.348 4.942 1.486.307.392.536.871.698 1.415a3.34 3.34 0 0 1 0 2.008c-.526 1.705-1.802 2.843-3.161 2.792-.667-.029-1.317-.21-1.9-.688-.98-.798-1.87-1.719-2.276-3.286-.094-.37-.302-.522-.558-.602-3.905-1.276-7.519-3.481-10.883-6.519-.625-.566-1.244-1.132-1.87-1.69-.025-.022-.077-.015-.109 0-.078.058-.067.152.016.261.922 1.16 1.807 2.372 2.76 3.474 3.15 3.648 6.296 7.303 9.597 10.682.432.443.896.841 1.307 1.32.5.58.958.74 1.552.196a2.15 2.15 0 0 1 1.661-.58c.203.014.417.036.61.13 2.166 1.023 3.165 3.431 3.197 6.136.02 1.602-.745 2.683-1.912 2.821-1.187.137-2.202-.428-3.046-1.56-.77-1.029-1.25-2.284-1.375-3.778-.041-.515-.047-1.03-.057-1.552a.93.93 0 0 0-.229-.587c-.062-.08-.13-.138-.198-.203-2.833-2.713-5.504-5.715-8.165-8.746-1.797-2.038-3.598-4.069-5.311-6.245-.12-.152-.26-.275-.396-.406-.016-.014-.068.015-.089.044-.026.036-.052.101-.041.138q.039.163.109.304 1.837 3.7 3.666 7.397c.12.24.245.465.36.704.197.413.442.638.817.638.328 0 .656.102.984.167.515.094.942.457 1.291.957.99 1.436 1.531 3.119 1.427 5.149-.057 1.197-.838 2.408-1.802 2.393-1.062-.021-1.942-.587-2.535-1.827-.75-1.574-.907-3.307-.578-5.135a4.4 4.4 0 0 1 .218-.805c.14-.37.052-.66-.093-.957-.636-1.276-1.271-2.56-1.912-3.836-.708-1.422-1.416-2.836-2.13-4.257a56 56 0 0 0-2.192-3.974c-1.15-1.886-2.218-3.873-3.374-5.759-.536-.877-1.005-1.834-1.5-2.748-.114-.211-.172-.508-.411-.537-.094.232.01.443.041.66.172 1.247.37 2.48.5 3.735.084.754.266 1.436.51 2.11 1.047 2.901 2.38 5.526 3.89 7.992.162.261.329.522.49.783.099.167.083.399-.02.45-.13.065-.245 0-.329-.116a19 19 0 0 1-.755-1.146 45.6 45.6 0 0 1-2.952-5.758c-.105-.239-.235-.457-.354-.682-.016-.029-.105-.022-.105 0-.026.109-.057.218-.057.334.016 1.443.057 2.879.063 4.322.005 2.763-.006 5.533-.016 8.297 0 .166-.042.333-.073.5-.005.043-.057.109-.068.101-.067-.043-.161-.087-.192-.166a1.6 1.6 0 0 1-.1-.493 31 31 0 0 1-.03-1.552c.025-1.842.057-3.685.083-5.215zm23.96 1.755c-.204.022-.454.022-.693.08-.76.181-1.401.645-1.854 1.552a2.58 2.58 0 0 0-.172 1.958c.094.312.224.624.38.877.52.834 1.151 1.487 1.88 1.922 1.005.602 2.005.609 2.963-.225a3.6 3.6 0 0 0 1.068-1.631c.203-.61.213-1.24-.016-1.828a4.7 4.7 0 0 0-.588-1.095c-.808-1.102-1.807-1.559-2.963-1.61zm1.827 18.442c.089-.014.214-.029.339-.051.9-.181 1.41-.971 1.359-2.233-.089-2.14-.714-3.851-2.11-4.939-1.004-.776-1.973-.66-2.92.152-.13.109-.224.327-.313.515-.14.298-.161.653-.14.994.093 1.798.567 3.336 1.582 4.496.625.718 1.354 1.066 2.198 1.066zm-14.606-10.015c.046.566.052 1.03.125 1.479.27 1.712.937 2.916 2.228 3.3.839.254 1.599-.399 1.76-1.574.052-.384.058-.805.026-1.196-.099-1.175-.463-2.198-.973-3.126-.516-.928-1.193-1.385-2.037-1.385-.494 0-.78.239-.916.914-.11.551-.156 1.124-.213 1.588m22.433 6.331c-.01.718-.422 1.269-.953 1.276-.625.008-1.11-.623-1.12-1.464-.01-.842.469-1.48 1.104-1.465.563.007.98.725.964 1.66zm-.932.573c.26-.029.49-.326.49-.645 0-.479-.282-.936-.584-.95-.313-.015-.573.456-.526.964.036.413.286.667.625.631z"/></svg>